<svg viewBox="0 0 1920 50.8" xmlns="http://www.w3.org/2000/svg" preserveAspectRatio="none">
<g>
	<g>
		<path d="M659.6,32.9c-0.2,0-0.4,0-0.6,0C659.1,32.9,659.3,33,659.6,32.9z"/>
		<path d="M1522.5,28.3c-0.2-0.1-0.3-0.3-0.5-0.5C1522.1,28,1522.2,28.1,1522.5,28.3z"/>
		<path d="M1495.5,22.4c0.1,0,0.2,0,0.3,0C1495.7,22.3,1495.6,22.3,1495.5,22.4z"/>
		<path d="M1518,22.6C1518.1,22.6,1518.1,22.6,1518,22.6C1518.1,22.3,1518.1,22.3,1518,22.6z"/>
		<path d="M0,0v27.9c2.5,1.3,5,2.9,8.5,3.7c0.1-0.9,0.3-1.7-0.5-1.9c0.8-1.6,1.5,1.4,1.9,2c0.7-0.6,2.6,0,2.2-1.6
			c0.8,0.8,1.1,1.9,3.3,1.5c-0.9-2.8,1.4,0.3,2.3-2.9c1.2,1.9,3.4,0.8,4.7,1.7c0.3-1.3-0.4-2-1.9-2c1.2-1.9,1.6,1.4,3.4,0.9
			c-0.4-0.7-1.5-0.8-1.2-1.9c4,2.8,13,5.1,16.9,4.6c-0.2-0.7-1.1-1.7-1.3-0.7c0-3,7.1,3.2,9.5,2.1c-0.9-6.5,12.7,0.8,16.6,0.9
			c1,0,2,1.4,2,1.4c0.1,0,7.6-3.5,9.8-0.3c-0.4-2,9.3,0.2,8.2,1.4c2.1,0.5,1.7-1.7,4.2-0.8c-0.5-1-2.1-1.1-3.3-1.5
			c6.4-1.9,10.8,1.4,14.9,3.8c0.9-0.2,1.5-0.7,1.6-1.7c1.5,0,0.1,2.2,0.4,3.1c2.1-1.6,3.7-0.6,5.1-2c4.6,3.9,12,1.6,14.3,3.1
			c-0.5-0.9,2.6-1.1,1.6-1.7c3.3-1.2,2.7,1.8,6.8,1.8c1.5-0.3-1.1-2.1-1.8-2.6c-0.1-1.5,3.8,3,6.7,3.1c1.7-0.4-1.4-1.9-0.3-3.7
			c3.6,2.3,1.2,2.5,3.7,4.6c0.9-0.1,0.7-1.5,0.9-2.4c3,2.6,6.1,4.1,8.9,1.4c0.4,3.6,3.1-0.8,2.5,2.7c2.2-1.8,3.5,0.1,5-2
			c2,0.6-0.8,1.2-0.2,2.4c2.9-2.1,7.3-0.4,8.1-4.8c-0.4,2.4,1,5.4,3.7,5.2c1.8,0-0.8-1.1,0.2-2.4c1.5,0.6,1.3,2.5,3.2,2.7
			c3.5-1.8,7.2-3.4,10.6-2.1c1.8-0.3-1.1-1.7-0.4-3.1c0.3,1.2,3.3,2.6,2.8-0.4c1.6,0,0.6,1.8,1.9,2c1.2,0,3.7-3.7,4.2-0.2
			c1.3,0,0.6-2,1.6-2.3c2.3,0.5-1.4,3.2,0.4,3.1c2.8,0.4,0.5-1.2,0.9-2.4c0.5,2.4,5.9-0.3,4,2.2c2.2-0.6,3.9-2.1,6.3-0.6
			c-1.6-1.4-0.6-1-1.1-3.2c2.4,0.9,3.4-1,6.1,1.2c1.3-1.1,0-0.8,0.2-2.4c3.1-1,12.5,3.9,13.1,0.6c3.2-0.6,7.6,2.5,10.4,0.3
			c2.2,2.7,6,0,9.5,2.1c0.2-1-1-1.7,0.2-1.8c2.4,0.3,0.1,0.9,1.2,2.6c5.1-0.5,1,0.9,6.1,1.2c0-0.7-1.2-0.6-2-0.8
			c5.7-0.7,6,0.6,9.6,1.5c1.5,0.2,0.5-2.1,1-3c1.5-0.7,9.4,1.7,7-0.6c1.6-1.8,6.9,3.9,7.7-0.5c1.4,2.3,4.8,0.9,3.2-0.9
			c-0.4-0.3-0.8-0.5-0.9-0.7c0.4,0.3,0.7,0.5,0.9,0.7c2.2,1.3,8,2.8,12.7,1.7c-0.4-0.7-1.5-0.8-1.2-1.9c1.6-1.2,3.9,0,4.8,1
			c1-1.9-2.2-0.7-1.2-2.5c2.6,0.1,6.2,1.2,6.4-1.3c1.9,1.3,0.8,2.7,3.2,2.7c1.7-0.2-2.2-1.4,0.2-2.4c1.4,4.1,10.9,1.4,15.3-0.4
			c-3-3.3,4.8-2.7,8.6-2.9c-0.2-0.6-0.5-1.1-1.3-1.3c1.7,0.3,4.4-0.1,5.4,1.7c2.4,0.1-1-2.8,0.9-2.4c1.6,2.1,5.9,0.1,5.1,0.8
			c2.1,0.4,1.7,2,2.4,1.1c4.2,3.4,12.4-2.3,13.8,0.6c1.1-0.4,1.2-1.9,1.7-2.9c2.9,0,3.8,1.4,6.1,1.8c3.8-3.8,10.9,0,14.1-2.4
			c-1.4-1.4-3.3-2.3-3.2-3.3c1.3-1.6,2.5,1.6,4,1.6c-0.2-0.8-0.8-1.3-2-1.4c1.6-0.8,4-0.7,6.3-0.6c-0.1,1.6,3.1,1.2,1.1,2.5
			c1.2-0.2,6.5,0.3,3.6-0.9c0.7-1.3,3.2,0.6,3.3,1.5c1-0.3,1.4-1.2,1.6-2.3c2.1,1.6,4.4-0.8,6.2,0.6c0.8,0.3,2.5-1.5,0.9-1.8
			c1.1-1.3,2.2,2.1,3.2,2.7c2.2,0.1,2.1-2.2,5-1.4c0-0.6-0.8-0.5-1.3-0.7c2.3,0.3,5.3-2.4,6.8,1.2c2.2-0.7-0.7-2.4,2.5-4.1
			c-2.4,0.1-2.3,0.5-4.1-0.4c6.3-1.3,10.6,4.5,14.8,5c1.1,0,0.3-1.2-0.8-1.8c4,1,11.5,4.4,10.7,0.2c5.1,2.3,8.7-0.3,15,3.2
			c-0.3-1.8,3.8,0.1,5.6-0.7c-2.8-1.4-0.8-1.6,0.3-3.6c-0.1,2.1,4.5,0.3,6.9,0.6c5.7,0.7,11.8,3.4,16.4,2.7c1-0.5-0.2-1,1.6-1.7
			c6.1,3.8,10.5-0.7,14.7-1.1c-0.4,0,1.1,2.2,4.1,1c5.4-2.2,15.3-0.2,23.5,1.5c2.4,0.2,5.5-2.2,7.6,0.1c-0.7-2,3.2,0.2,2.2-1
			c2-0.4,6.2,3.1,6.9,0c1.4,3.8,5.2,1.6,8.1,2.6c-2.9-0.9,2-2.1-1.1-2.5c-0.3,0-0.5-0.1-0.7-0.1c0.3,0,0.5,0.1,0.7,0.1
			c4.8,0.6,12,2.8,16.9,4.6c2.1-1.5,5-1.9,5.2-3.8c1.4,0.3-0.1,2.7,1.1,3.2c1.7,0.9,3.1-1.6,2.7,0.9c0.8-0.8,3.8-1.8,0.2-1.8
			c2.2-1.6,5.9,1.1,7.6,0.1c0.3-0.8-0.1-1.1-0.7-1.2c-0.2,0-0.4-0.1-0.6-0.1c0.2,0.1,0.4,0.1,0.6,0.1c6,1.3,9.9-2.6,20.3-0.7
			c1.1,0.2-0.7,1.1,0.6,1.3c2.7,1,1.6-1.9,4.2-0.8c-0.4-1.8-1-0.8-2.7-0.9c2.4-3.6,8.3,1.2,12.3,1.7c3.1-0.9,2.2-1.8,3.8-3.9
			c5.7-0.1,12.6,1.8,20.5,3.7c0.8,0.2,2.4-0.5,2.8-0.3c1.9,0.6,4.2,2.6,1.4,0.1c3.1,1.6,8.9,3.2,13.3,6.1c2.4-0.3,3.9-1.6,6.5-1.8
			c-0.7-0.4,2.5-3.6,2.4-3.5c0.5-0.3,2.1,0.2,2.1,0.2c0.4-0.2,0.6-0.4,0.8-0.5c-0.4-0.8,1-0.8,0,0c0.1,0.2,0.3,0.4,0.6,0.6
			c1.1,0.9,6.9-0.8,4.4-2c8.7,2.2,14.1,1.2,23.1,5.2c0.5-0.8-2.5-1.7-0.5-1.9c4.6,5.4,12.2-1.7,17.1,2.8c0.8,0,0.7-1.1,0.9-1.8
			c1.2,2.6,3,1.3,6,2.4c1.5-0.1-0.8-2-1.1-2.5c2.4-0.2,3.9,2.4,6.7,3.1c4.9-1.9,10-0.8,16-0.4c0.3-0.9,1-1,2.3-2.2
			c3.4,2,3.3-0.5,4.9-0.8c9,1.7,30.2,5.3,39.6,0.5c0.9,0.2,3.2,2.1,3.4,0.9c1,0.4-0.1,0.5-0.1,1.2c9.5-0.7,19.7,6.1,27.3,4.9
			c-0.6-0.8-4.3-1.4-4.8-1c-0.2-0.6-0.5-1.1-1.3-1.3c1.3-1.2,3.7,0.5,2.3-2.2c5.8,3.2,9.9-1.2,15.1,2c1.5,0.4,4-1.5,2.3-2.2
			c3.1-0.6,6.9,3.3,10,4.6c1.3-0.4,1.1-2.4,3.6-1.5c-0.4-0.6-1.2-1-2-1.4c0.5-0.3,6.9,2.2,5.2,3.5c1-0.8,4-0.5,4.8,0.4
			c1.2-2.2-3.1-0.4-1.8-2.6c0.7,0.8,5.1,2.1,4.2-0.8c3,2.3,11.1,2.8,13.6,3.7c4.9,2,9.2,0.5,14.8-2.3c0-0.6-0.8-0.5-1.3-0.7
			c6.4-1.2,7.2,2.8,14.4,2.5c-0.4-0.9-1.4-1.3-2.6-1.5c-1.1-1.5,4.2,0.7,4.7,1.7c1.3-1.2,2.5-0.8,1.7-2.9c1.4,0.3,1.2,1.8,2.6,2.1
			c1-0.2-0.2-0.8,0.2-1.8c5.8,0.4,20.4,5,19.6-1.3c6.9,0.8,10.8-1.5,16.1-1.6c-0.2,0.7-0.7,1-1.4,1c3.8,0.6,7.1,4.6,12.6,5.5
			c5.8,0.9,14.9-3.9,17.8,2.8c0.7-0.4,1.6-0.5,2.8-0.3c0.4,1.2,2,0.6,0.5,1.9c2.5,0.4,6.6-1.3,9.7,0.3c2.4-4.2,11.9,0.5,13.5-3
			c1.1,1.3,6.5,5.1,7.5,1.3c0.6,2.8,11.3,1.7,5-1.4c1.2-0.2,4.5,2.7,5.9,4.2c2.4-0.3,0.2-1.4,1.6-2.3c0.9,2.7,1.6-1.1,5.4,1.7
			c-0.2-1.4,3.4-1.4,3.9-3.9c3.1,2.7,3.6,1.1,8.1,2.6c1.1-2,9.3-5.2,12.6-1.3c8.5-4.1,19.5-3.3,28.5-0.5c4.1,0.3,9-3.1,14.6-0.5
			c0.9-0.1,0.8-1.1,0.1-1.2c5,0,14.8,0.9,17.7-3.3c4.3,3.9,20.5,0.3,26.1,3.6c11.6-1.3,19.9-5.7,34.3-2.4c2-1.4,0.9-2,0.3-3.6
			c8.1,4,19.4,2.9,24.5-2c-0.4,0.5-0.8,0.9-0.9,1.8c6.7-1.1,15.5-2.3,22.1-5.3c2.6,4.8,10.9,2.5,14.7,5.6c3.6-4.1,18.5-3.6,26.5-1.3
			c0.5-3,8.6,0.2,11.9-1.4c-0.5,1.1,10.6,2.7,13.8,1.3c0.2,1-0.6,1.1-1.5,1.1c7.3,2.7,11.9,2.7,19.1,3.6c-0.5-0.6-0.6-1.4-0.5-2.5
			c0.6,2.2,6.7,3.7,6.1,1.2c1.4,0.1,0.7,1.7,2.6,1.5c1.3-1.7,4.1-1.9,5.2-3.8c1.7,0.5,2.3,0.7,4.7,1.7c1.8,0-0.8-1.1,0.2-2.4
			c6.4,0.6,13.6,4.4,15.2,1.4c1.4,0.2,2.3,0.8,4.2-0.8c-0.1,0.6-0.1,1.2-0.2,1.8c3.9-4.5,10.1-1.9,16.8-1.5c0.8,0,0.7-1,0.9-1.8
			c8.8,1.7,11.3-1.1,17.9,1.6c0.9,0.2,0.6-1.2-0.2-1.8c-0.3-0.1-0.7-0.1-1-0.2c0.4-0.1,0.7,0,1,0.2c6.2,1.3,11.9-0.5,17.8-0.3
			c0.3-1.8-1.4-2-1-3.8c1.3-1,2,0.4,3.4,0.9c-0.3-0.6-0.5-1.1-1.3-1.3c0.4-2.3,5.4,1.6,5.7-1.9c5.2,2,11.3-6.9,17.6-3.7
			c5.1-2.2,12.5-0.4,17.9,1.6c3.2-2.5,8.4-3.2,10-2.8c1.4-3.5,4.8,5.8,6.9,1.7c0.8,4.2,5.8,0.7,6.7,3.1c0.8,0,0.7-1.1,0.9-1.8
			c6.9,3.2,13.2-6.5,19.6-2.9c3.5-3.5,6.6,6.8,11.4,6.4c0.2-1.3-0.4-2-1.9-2c1.9-1.7,9,1.3,2.1,0.2c0.5,0.8,0.7,1.7,0.4,3.1
			c1.3,0,0.6-2,1.6-2.3c1.9,3.6,7-4.6,11.1-4.9c0.1-0.1,0.2-0.1,0.3,0c-0.1,0-0.2,0-0.3,0c-0.8,0.7-1.3,5.9-2.8,5.7
			c7.5,0.5,15.8,2.3,23.7-0.3c0.8,0.5,1.6-4.2,1.7-5.2c0,0,0,0,0,0c0.1-0.3,0.1-0.3,0,0c0.9-1.1,2.4,3.2,4,5.2
			c-0.2-0.6,1.2-1-0.1-1.4c4.1,1.5,5.7-2.6,11.9-0.8c1.1-0.2,0.1-0.6-0.6-0.7c9.4-5.7,25.9,8.6,38.7,2.3c5.1,2,10.8,0.1,15.8,2
			c-2.3-3.4,7.8,2.6,11.2-1.4c-0.7,1.9,1.3,1,1.4,0.1c1,0.3,0,1.1-0.8,1.1c0.5,0.6,1.2,1,2,1.4c0.3-0.7,1.1-2.1,4.3-1.4
			c-0.7-0.8-0.6-2.2-0.3-3.7c1.1-1.8,0.5,2.2,0.4,3.1c8.9,3.3,12.8-3.2,18.3-2c0.6-1.6-1.3-1.3-1.9-2c0.6-1.3,3.4-1.7,4.3-0.8
			c-0.3,0.9-1.2-0.6-1.4,0.5c0.1,0.7,1.3,0.5,1.3,1.3c3.6-1.5,4.9-1.4,9.1-0.4c1.2-0.7,2-1.9,2.4-3.4c3.1,0.2-0.8,1.5-0.3,3
			c3.3-3.5,5.8-0.4,8.2-5.4c0.8,0.9,1.2,2,2.1,0.2c1,0.4-0.3,0.7-0.2,1.8c2.3,0.4,1-2.9,4.3-1.4c0-1.1-2.3-0.6-2.6-1.5
			c-1.3-2,3.9,2.4,4.8,0.4c0.9,0.3,0.4,1.6,0.5,2.5c0.7-0.3,1.2-1.6,1.4-0.5c1-0.2-0.2-0.8,0.2-1.8c1.3,0.4,0.3,2.4,2.6,2.1
			c1.7,0-0.6-1.7-1.2-1.9c1.2-0.1,4.7,3,5.1,5.4c0.9-1.2,3.4-0.9,3.7-2.7c1,1-0.9,3,2.5,3.3c0.5-1.7,0.7,0.3,1.6-1.7
			c0.6,1.9,2.7,0.1,1.2,1.9c1.4,0.3,2.2,0.1,2.2-1c1.2,0.8,2.2,1.8,3.2,2.7c2.8-0.5,3.7-2.1,7-0.6c0.8-2.6-1.4,0.4-1.3-1.3
			c2.9-2.8,7.4-0.4,8.7-4.1c7.7,3.1,20.1,1.8,22.9,7.6c0.9-0.1,0.7-1.5,0.9-2.4c1.6,1.4,3.1,3,5.9,3.6c-3.7-2.4,5.1-0.4,5.5,1.1
			c1-0.1,0.7-1.5,0.9-2.4c1.6,0.5,3.4,2.9,7.5,1.3c0.8,0.2,0.5,1.2,0.5,1.9c1.3-1.7,9,2.3,11.9-0.7c1.7,1.2,1.8,1.7,3.8,3.4
			c0.7-0.4,1.2-1,1.5-1.7c-5.2-0.4,1.4-2.9-1.6-5c1.3-0.8,3.4,2.8,3.7,4.6c1.4-1.4,3-2.6,3.9-4.5c4.8-0.1,10.7,2.4,13.3,6.1
			c3.1,0.5,4.9-1.7,8.3,0.2c1.1-2.5,1.2-4.7-0.1-6.7c-0.4-1.6,2.1,3.5,3.1,4.6c1-1.6,3.8-0.9,4.3-1.4c0.8,0.2,0.5,1.2,0.5,1.9
			c1.6,0.3,2.6,0.1,2.9-1c0.9,0.3,0.4,1.6,0.5,2.5c1-0.2,1.8-0.8,2.2-1.6c0.9,1.3,4.4,3.2,3.5-0.3c2.5-0.2,0.6,3,2.5,3.3
			c2.3-0.8-2.2-2.5,0.3-3.6c0.7,0.5-0.1,1.8,1.1,3.2c0.9-0.1,1.2-1,2.2-1c0.4-1.4-3.2,0.1-1.9-2c1.3,1.5,2.3-0.3,3.4,0.9
			c-1.7-2.4-0.2-1.7,0.4-4.2c0.2,3.5,8,2.8,6.1,1.2c1.1-1,2.1,2.8,3.3,2.1c1.1-0.2-0.2-0.8,0.2-1.8c1.5-0.2,2.8,4,3.4,0.9
			c0.8,0.2,0.5,1.2,0.5,1.9c0.8,0,0.7-1,0.9-1.8c0.9,1,1.9,2,3.2,2.7c1-0.1,0.7-1.5,0.9-2.4c0.8,0.2,0.5,1.2,0.5,1.9
			c2-0.3,0.9-0.8,0.9-2.4c2.4,0.3,1.4,3.1,4.6,2.9c-1.8-3.3,0-0.3,2.9-1.6c-1.9,2.2,1.1-0.6,0.5,1.9c1.6-1.7,3.9,0.3,7.6,0.1
			c9.2,4.7,19,6.9,23.9,11.9c9.6,1,14.6,1.5,24,3.4c-0.2-1.4-3.4-0.6-4.8-1c11.5,0.4,21.9,3,35.9,2.2V0H0z"/>
		<path d="M575.8,28.3c-0.2,0-0.4-0.1-0.6-0.1C575.5,28.3,575.6,28.3,575.8,28.3z"/>
		<path d="M542.8,26.5c-0.2,0-0.5-0.1-0.7-0.1C542.3,26.4,542.6,26.5,542.8,26.5z"/>
		<path d="M586.3,29.2c0-0.4,0-0.7-0.6-0.7c-0.2,3.3,2.7,0.9,3.5-0.3C587.1,27.4,587.4,29.1,586.3,29.2z"/>
		<path d="M417,26c-3.2-0.9-1.5-0.2-3.3-2.1c0.4,2.3-3.1-0.2-4.1-0.4c-0.8,1.9,0.9,2,1.1,3.2c2.1,0.5,3.5-1.1,2,0.8
			c1.7,0.1,2,1.2,3.3,1.5C416.2,26.7,415.2,27,417,26z"/>
	</g>
</g>
</svg>
